<svg xmlns="http://www.w3.org/2000/svg" width="3508" height="2481" style="shape-rendering:geometricPrecision;text-rendering:geometricPrecision;image-rendering:optimizeQuality;fill-rule:evenodd;clip-rule:evenodd"><path style="opacity:1" fill="none" d="M-.5-.5h3508v2481H-.5V-.5z"/><path style="opacity:1" fill="#c5cfd9" d="M3229.5 513.5c-984-1.333-1968-1.333-2952 0-.543-.06-.876-.393-1-1l1477-1 1477 1c-.12.607-.46.94-1 1z"/><path style="opacity:1" fill="#153e6c" d="M3229.5 513.5c-90.33 231.995-180.67 463.995-271 696-184.17.33-368.17 0-552-1 33.87-86.93 67.53-173.93 101-261-149-.333-298 0-447 1-75.77 194.14-151.44 388.31-227 582.5 333.33.5 666.67.67 1000 .5-56.04 145.08-112.37 290.08-169 435-519.67 1-1039.33 1.33-1559 1-2.19-7.39-4.69-14.73-7.5-22a103428.33 103428.33 0 0 1-164.5-413c116-.67 232-1.33 348-2a4696.95 4696.95 0 0 0 28-72c-135.67-1-271.33-1.33-407-1a79910.476 79910.476 0 0 0-167-434.5c248.333-.5 496.67-.67 745-.5a3611.776 3611.776 0 0 1 28-75c-353.33.333-706.667 0-1060-1a169091.864 169091.864 0 0 0-171-433c984-1.333 1968-1.333 2952 0z"/><path style="opacity:1" fill="#8a9eb6" d="M2406.5 1208.5c183.83 1 367.83 1.33 552 1-184.17 1.33-368.5 1.33-553 0 .12-.61.46-.94 1-1z"/></svg>